<?xml version="1.0" encoding="utf-8"?>
<!-- Generator: Adobe Illustrator 14.0.0, SVG Export Plug-In . SVG Version: 6.00 Build 43363)  -->
<!DOCTYPE svg PUBLIC "-//W3C//DTD SVG 1.1//EN" "http://www.w3.org/Graphics/SVG/1.1/DTD/svg11.dtd">
<svg version="1.1" id="Layer_1" xmlns="http://www.w3.org/2000/svg" xmlns:xlink="http://www.w3.org/1999/xlink" x="0px" y="0px"
	 width="250px" height="238px" viewBox="0 0 250 238" enable-background="new 0 0 250 238" xml:space="preserve">
<g>
	<path fill="#6C4598" d="M151.129,5.96c0.722,1.8,1.074,3.962,1.074,5.956l-0.538,0.352c-1.439-1.986-3.417-4.691-6.132-5.412
		c-1.977-0.544-4.684-0.351-6.484,0.721c-1.633,1.089-1.633,3.066-1.273,4.691c3.972,5.588,13.17,3.427,15.34,11.007
		c0,2.531-0.176,5.044-1.634,6.854c-3.058,3.786-7.925,4.146-12.433,3.426c-2.354-0.544-4.876-1.986-4.692-4.691
		c-0.184-1.266-1.089-2.891,0-3.962c1.618,1.072,1.618,3.242,3.243,4.507c2.354,2.513,6.677,3.066,9.735,1.616
		c1.809-1.08,3.074-2.881,3.074-4.867c-1.441-5.948-8.294-5.228-12.45-8.126c-1.439-1.073-2.704-2.698-3.066-4.499
		c-0.359-2.354,0.362-4.331,1.627-5.956c3.435-3.603,9.374-3.25,13.346-1.617H151.129"/>
	<path fill="#6C4598" d="M97.372,5.96c-0.36,1.44,0.361,3.602-0.896,4.683c-1.089-0.905-1.265-3.418-3.435-3.066l-8.109,0.369
		c-1.089,2.698-0.37,6.132-0.185,9.19c2.697,1.089,5.948,0.544,8.478-0.36c1.073-0.36,0.905-2.522,2.162-1.801l0.368,7.582
		c-1.625,1.44-1.458-1.441-2.714-1.986c-2.698-0.553-5.228-0.553-7.935,0c-0.896,2.706-0.175,6.125-0.175,9.19
		c1.616,2.346,5.228,0.906,7.573,0.906c2.512-0.361,4.867-1.441,6.853-3.418c0.729-0.185,0.904,0.72,0.729,1.256
		c-0.729,1.801-1.817,3.972-3.795,4.508l-17.676,0.72c-0.544,0-0.544-0.72-0.369-0.905c0.905-0.72,2.346-1.256,2.53-2.521
		c0.368-7.213,0.185-14.435-0.721-21.639c-0.184-1.81-5.228-1.266-2.161-3.25c6.493,0.352,12.801-0.369,18.933-0.544L97.372,5.96"/>
	<path fill="#6C4598" d="M169.888,6.505c-0.362,1.072-1.618,0.536-2.163,1.44l-1.08,1.792l-1.272,19.302
		c0,1.44,0.367,3.25,2.178,3.619c0.536,0.167,1.256,0.353,1.439,0.897c0,0.896-1.089,0.544-1.632,0.544l-8.823-0.544l-0.367-0.544
		c0.72-1.089,2.881-0.905,3.066-2.707c0.72-7.213,1.802-14.971,1.256-22.184c-0.536-1.616-3.057-1.081-2.881-2.706l0.72-0.185
		C163.209,6.312,167.005,5.416,169.888,6.505"/>
	<path fill="#6C4598" d="M199.836,12.988c1.258,1.441,0.36,3.603-0.535,4.868c-1.273,0.368-0.737-1.44-1.273-2.161
		c-2.347-1.441-5.061-2.162-7.941-2.891c-1.618,0.729-1.618,2.891-2.347,4.507l-4.506,16.789c-0.536,2.161,2.897,1.977,2.345,3.603
		c-3.419-0.369-6.669-1.81-10.104-2.53l-0.176-0.353c0.544-1.089,2.171-0.184,3.066-0.904l1.266-1.625l5.587-20.022
		c0-1.089-1.265-1.441-2.161-1.625c-2.161-0.361-5.051-2.162-7.038-0.185c-0.72,0.369-1.08,1.81-1.801,1.274
		c0.186-1.81,0.721-3.787,1.986-5.228C184.137,8.481,191.895,11.18,199.836,12.988"/>
	<path fill="#6C4598" d="M71.393,7.401c-1.977,2.882-1.617,6.853-1.617,10.456l-0.721,20.383c-1.089,0.536-1.985-0.905-3.074-1.441
		c-6.493-5.772-12.625-12.449-19.298-18.029c-1.261-1.272-4.152,1.073-3.963-1.272c2.522-1.257,5.232-1.978,7.753-3.067
		c1.986,0,0,1.625,0.544,2.706c4.868,5.051,10.456,10.463,15.876,15.155l0.545-0.721c0.351-7.038,0.721-13.538,0.176-20.391
		c-0.544-0.721-0.914-1.441-1.81-1.441c-0.544,0.185-1.441,0.185-1.617-0.351c1.44-1.626,4.146-1.441,5.947-2.531
		C70.672,6.856,71.393,6.68,71.393,7.401"/>
	<path fill="#6C4598" d="M124.431,9.562c1.265,3.243-0.36,6.308-2.706,8.294c-0.536,0.544-1.441,0.721-1.617,1.441
		c2.521,3.978,5.403,7.95,8.653,11.552c0.903,1.441,4.139,0.176,3.243,2.162c-2.707,1.089-5.94,0.184-7.934-1.625
		c-3.243-3.066-4.507-7.037-7.574-10.271c-1.089-0.904-2.714-0.904-4.339-0.728c-1.441,2.706-0.353,6.308-0.176,9.198
		c0.36,2.337,3.074,1.985,4.515,3.242l-0.721,0.729l-11.192-0.361c0.369-1.625,3.25-1.089,3.074-3.435
		c0.544-7.028,0-14.426-0.36-21.462c-0.185-2.162-3.25-0.897-3.25-2.882c4.875-0.369,10.288-0.721,15.146,0
		C121.357,5.96,123.535,7.401,124.431,9.562 M116.849,7.761c-1.617-0.36-3.971-1.255-5.043,0.361
		c-0.185,3.242-0.544,6.853,0.353,9.911c1.809,0.545,3.618,0.192,5.235-0.176c1.626-0.545,3.075-1.986,3.26-3.603
		c0.352-1.617-0.185-3.61-1.458-4.867L116.849,7.761z"/>
	<path fill="#6C4598" d="M211.373,21.115c0.176,0.353,0.176,0.721,0,0.897c-0.897,0-2.522-0.721-2.522,0.896
		c-0.72,3.251-1.08,6.853-0.904,10.288l0.544,0.361c3.427-0.897,7.213-1.45,9.743-3.971c0-1.081-1.809-2.162-0.544-3.058
		c2.161,1.257,4.33,3.418,6.308,5.228c0,2.521-2.514-0.553-3.786,0.721c-5.228,1.8-11.36,1.44-15.147,5.764l-5.411,6.676
		c-0.722,1.449,3.066,2.706,0.544,3.25c-2.528-1.081-4.516-3.971-6.86-5.412c-0.369-0.721,0.367-1.081,0.903-0.896
		c0.905,0.352,1.987,0.536,2.707-0.184l6.853-7.758c0.545-5.228,1.811-10.64,1.089-16.06c-0.359-0.897-1.985-1.986-0.729-2.706
		C206.505,17.136,209.212,18.769,211.373,21.115"/>
	<path fill="#6C4598" d="M37.845,23.276c-0.36,1.073-0.721,2.162-0.18,3.067c5.236,5.228,10.824,10.816,16.587,15.331
		c1.634,0.905,2.714-1.441,4.155-0.537c-1.977,2.513-4.691,5.044-7.037,7.205c-1.441-0.721,0.721-1.617,0-2.882l-1.793-2.706
		L35.864,30.305c-1.081-0.72-2.71-1.44-3.791-0.36c-0.541,0.36-1.26,0.721-1.801,0.536c-0.541-0.536,0.18-1.072,0.541-1.616
		l6.132-6.309C37.665,22.372,37.665,22.908,37.845,23.276"/>
	<path fill="#6C4598" d="M25.58,40.593c7.394,4.516,15.511,7.213,23.277,10.824c0.536,0.352,0.897,0.896,0.353,1.44
		c-8.663,2.882-17.497,5.236-25.97,8.478l-0.361,0.361c4.872,2.882,10.275,5.948,16.047,7.389c1.621-0.176,1.805-2.514,3.246-2.161
		c0,2.346-1.986,4.322-2.346,6.676c0.18,0.721-0.541,1.266-0.9,1.618c-1.261-0.352-0.721-1.978-1.44-2.883
		c-5.053-3.971-10.825-6.132-16.42-8.662c-1.622-0.537-3.783-1.256-5.592-0.352c-0.901,0.536-1.44,1.617-2.521,1.617
		c-0.541-1.44,0.908-2.882,1.081-4.322c5.411-3.435,12.269-3.435,18.041-5.957c3.423-1.257,7.033-1.978,10.288-3.611
		c-5.056-2.706-10.467-5.043-15.879-7.028c-2.161-0.721-3.795,1.089-4.867,2.345c-0.909,0-0.729-1.256-0.361-1.809l3.247-6.677
		C25.76,38.055,25.041,39.873,25.58,40.593"/>
	<path fill="#6C4598" d="M235.551,53.218c4.322,4.875,5.411,13.353,2.337,19.117c-2.513,4.323-7.038,7.038-11.906,7.222
		c-5.042,0.36-9.557-1.441-12.623-5.412c-3.066-3.971-3.786-9.382-2.883-14.61c0.536-3.251,2.706-6.317,5.772-8.312
		C221.836,47.806,230.85,47.991,235.551,53.218 M230.313,53.034c-6.853-1.265-13.521,1.441-16.955,7.582
		c-1.81,3.426-1.09,8.469,1.089,11.536c2.161,2.529,4.858,3.786,7.934,3.971c5.235,0,9.743-2.161,12.994-6.316
		c2.345-3.234,2.696-8.47,0.72-12.081C234.829,55.564,232.837,53.402,230.313,53.034z"/>
	<path fill="#6C4598" d="M91.24,53.754c5.051,7.757-8.294,13.353-2.337,20.926c5.228,5.413,12.801,11.193,9.19,19.303
		c-0.721,1.977-2.522,3.786-3.795,5.596l0.369,0.36l14.435,0.544v1.073c-7.397,8.478-19.302,11.368-30.135,8.118
		c-4.867-1.801-9.911-4.324-12.984-8.838l0.184-0.536c3.787-0.536,8.83,0.184,12.801-0.536c1.458-0.721,1.995-2.178,1.81-3.619
		c-3.25-5.228-10.824-8.478-9.919-15.683c0.185-3.803,2.522-6.861,5.413-9.391l0.184,0.175c0.536,3.795,1.073,7.398,3.603,10.288
		c3.066,4.155,8.663,6.133,9.743,11.008c1.265-0.905,0.896-2.714,0.361-3.971c-4.508-5.596-13.707-9.927-11.544-18.397
		c1.257-6.676,10.639-11.544,6.317-18.757c1.072-0.914,2.346,0,3.601,0.352L91.24,53.754 M88.718,54.475
		c-0.185,6.316-5.948,10.288-7.757,15.875c-2.17,9.743,12.081,12.272,12.081,21.472c-0.889,2.882-3.788,5.764-6.493,7.028
		c0.369-1.985,0.729-4.331,0.544-6.492c-1.986-4.691-7.397-6.484-10.104-11c-0.904-1.618-1.44-3.611-2.345-5.052
		c-0.721,1.072-1.266,2.337-1.441,3.787c-1.089,6.676,6.669,9.383,9.567,14.426c0.896,1.81,0.536,4.331-0.905,5.781
		c-2.53,3.611-7.397,1.257-10.823,2.346c2.882,2.883,6.668,4.148,10.271,5.412c8.126,1.617,17.325,0.176,22.737-5.412l-11.008-0.367
		l-1.257-1.074c-1.089-3.065,2.706-4.524,3.786-7.037c4.516-7.942-4.691-13.169-9.198-18.581
		c-4.147-5.781,1.441-11.176,3.602-16.236C90.879,57.725,90.343,55.379,88.718,54.475z"/>
	<path fill="#6C4598" d="M99.894,70.35c3.25,3.611,8.31,6.493,6.132,11.729c-0.896,2.521-2.161,5.051-4.147,7.028
		c-0.896-1.44-0.896-3.602-1.985-5.228c-2.698-5.587-12.616-8.838-9.551-16.411c0.721-2.53,1.978-4.868,3.787-6.853
		C95.387,64.042,96.651,67.828,99.894,70.35 M93.401,66.027c-1.249,1.618-1.801,4.323-0.721,6.308
		c3.075,3.972,7.758,7.222,9.928,11.544c0.536-0.36,0.721-0.904,0.904-1.44c2.513-5.412-4.155-8.478-7.037-12.265
		C95.387,68.909,94.297,67.107,93.401,66.027z"/>
	<path fill="#6C4598" d="M12.952,74.497c5.411,1.985,11.728,1.625,17.5,2.706c3.243,0.721,6.853,3.259,7.934,6.677
		c1.261,4.876,0.72,10.64-2.522,14.443c-6.501,6.484-16.42,1.257-24.354,1.978c-1.981,0.184-1.622,3.065-3.242,2.882
		c0-2.882,0.171-6.316,0.531-9.198l0.549-0.536c0.9,0.896,0.9,2.882,2.702,2.882l17.312,1.44c3.251-0.352,6.133-2.346,7.041-5.412
		c0.9-3.426,0.9-7.941-1.621-10.64c-5.592-4.516-13.718-3.074-20.751-3.971c-1.801,0-2.342,1.993-3.062,3.25
		c-0.9-0.184-0.9-1.257-0.721-1.977c0.54-1.994-0.18-4.524,1.081-6.142C12.411,72.879,12.051,74.145,12.952,74.497"/>
	<path fill="#6C4598" d="M240.962,82.623l-0.176,17.861c-1.81,0.537-4.34,0.537-5.781-0.368c0.722-1.44,3.437-0.721,3.437-3.065
		c0-2.707,0.72-5.765-0.186-8.294c-2.881-0.544-6.501-0.544-9.567,0c-0.72,2.53-1.256,6.484,0.369,8.663
		c0.536,0.721,2.338,0.536,1.792,1.625c-2.514,0.352-5.411,0-8.108,0c-0.36-0.193-0.186-0.721,0.184-1.089
		c4.322-0.536,1.985-5.596,2.883-8.478l-1.089-0.905c-3.779,0.721-9.552-1.977-10.991,2.714c0,0.537-0.369,0.897-0.722,1.257
		c-0.905-0.36-0.905-1.625-0.905-2.53l0.168-7.933c0.193-0.361,0.737-0.361,0.913,0c0.36,1.081,1.266,2.337,2.521,2.521
		c7.397,0.185,14.971,0.553,22.017-0.352C239.521,84.064,240.066,77.923,240.962,82.623"/>
	<path fill="#6C4598" d="M169.888,53.402c1.615,1.617,2.528,3.418,3.074,5.588c1.977,0.729,4.508,1.801,5.403,4.146
		c0.72,1.626,0.913,3.787,0.36,5.412c2.345,0.721,5.228,2.346,6.316,5.051c1.089,2.882,0,5.772-1.441,8.118
		c1.978,1.081,3.603,3.066,4.324,5.228c0.903,3.25-0.353,6.317-2.883,8.294l-3.066,1.44l-15.69,0.185
		c-0.913,3.25-0.722,7.22,1.801,9.566c2.697,3.603,7.933,1.256,10.999,4.332l-0.359,0.352h-30.661l-0.362-0.352
		c3.243-3.426,9.376-0.913,11.906-5.773c1.625-2.169,1.625-5.227,1.264-8.125l-15.339-0.536c-2.16-0.544-4.138-2.346-5.228-4.323
		c-0.905-2.178-0.545-5.06,0.72-7.038c0.546-1.625,2.883-1.993,2.883-3.435c-1.793-1.617-2.337-3.61-2.337-5.947
		c0.176-1.986,0.896-3.62,2.337-4.876c1.266-1.081,2.898-1.625,4.34-1.977c0-2.53-0.184-5.412,1.792-7.398
		c1.089-1.081,2.347-1.985,3.788-2.161c0.727-2.714,2.345-5.596,5.059-6.861C162.137,50.152,167.181,50.688,169.888,53.402
		 M157.981,55.916c-0.544,0.904-1.625,1.986-1.08,3.075c1.985,0.36,3.074,3.242,5.052,3.61c0-3.065,0.36-5.964,0-8.846
		C160.504,53.754,159.063,54.475,157.981,55.916z M165.196,53.578c-0.177,2.882-0.36,6.141,0.176,9.199
		c1.633-1.081,2.897-3.242,4.691-3.603c0.367-0.544,0.184-1.081,0-1.449C169.342,55.564,167.181,54.123,165.196,53.578z
		 M155.101,61.511c-1.635,0-3.25,1.266-3.972,2.714c-0.544,1.441-0.72,3.419,0.536,4.508c3.066,2.697,6.502,4.691,9.752,6.308
		l0.353-8.294C159.782,64.763,158.167,61.696,155.101,61.511z M171.503,61.511c-2.514,0.369-3.953,3.067-5.939,4.692l-0.191,8.478
		l0.367,0.537c3.427-1.978,6.677-3.972,9.919-6.309c1.082-1.264,1.082-3.426,0.36-4.867
		C175.123,62.417,173.49,61.335,171.503,61.511z M150.762,71.615l-2.697-0.369c-1.627,0.369-3.437,1.633-3.788,3.435
		c-0.72,1.978,0.176,3.963,1.617,5.236c5.052,2.162,10.279,4.147,15.34,5.588l0.184-7.029L150.762,71.615z M177.819,71.246
		c-3.786,1.458-6.843,3.972-10.462,5.957c-3.603,1.089-1.249,5.772-1.618,8.486l14.428-4.875c1.448-0.536,2.714-2.17,2.89-3.971
		c0.177-1.256,0-2.882-1.081-3.787C180.896,71.967,179.454,71.246,177.819,71.246z M179.454,83.696l-13.538,4.875
		c-0.177,1.801-0.353,3.971,0.192,5.772c5.044,0.176,10.815,0.176,15.684-0.176c1.809-0.544,3.426-2.161,3.786-3.971
		c0.184-1.809-0.36-3.602-1.625-4.867C182.697,84.064,181.256,83.52,179.454,83.696z M146.807,83.879
		c-1.273,0.369-2.53,0.721-3.434,1.995c-0.906,1.256-1.441,2.881-0.906,4.498c0.37,1.81,1.81,3.25,3.62,3.795l13.695,0.352
		c2.531-0.352,0.898-3.954,1.451-5.764C156.542,86.77,151.851,84.6,146.807,83.879z"/>
	<path fill="#6C4598" d="M26.121,123.024c0.36,0.9,0.36,2.351,0.18,3.247c-1.081-0.896-1.981-3.066-3.782-3.066
		c-1.454-0.181-2.354,1.272-2.895,2.345c-0.36,2.347,0,4.867,1.081,6.678c0.733,1.266,2.354,1.618,3.615,0.896l2.161-1.809
		c0.541,0.736-0.54,1.456-0.901,1.992c-1.26,1.258-3.43,1.978-5.236,1.081c-1.621-0.721-2.521-2.337-3.062-3.972
		c-0.721-1.799,0-3.776,0.721-5.587C19.624,121.943,23.419,121.766,26.121,123.024"/>
	<path fill="#6C4598" d="M10.97,130.058c1.621-2.161,1.981-5.052,3.242-7.393c0.901-0.722,1.99,0,2.891,0
		c0.36,0.726-1.081,0.899-1.081,1.629l0.54,9.199c0.181,0.353,0.901,0.353,0.721,0.896c-1.26,0.177-3.25,0.544-4.151-0.176
		c1.261-1.441,0.901-4.155,0.36-5.78c-1.26,1.811-1.44,4.155-2.702,5.78c-1.44-0.186-1.261-1.985-1.99-2.897
		c-0.36-0.898-0.36-1.978-1.072-2.697c-0.729,1.256-0.548,3.25-0.188,4.506l0.901,1.089c-0.712,0.897-2.161,0.176-3.062,0.176
		c1.081-2.89,0.901-6.309,0.901-9.911c-0.181-0.913-1.441-1.087-1.262-1.813C10.07,121.044,8.8,127.713,10.97,130.058"/>
	<path fill="#6C4598" d="M33.153,129.874c0.721,0.543,0.901-0.536,1.089-1.074l2.161-5.955c0.9-0.72,2.342-0.18,3.063,0
		l-1.081,1.449l0.36,9.014c0.18,0.538,1.081,0.538,0.721,1.258c-1.081,0.184-2.702,0.184-3.971,0
		c1.269-1.617,0.368-3.955,0.548-5.947h-0.36l-2.531,5.595c-1.621,0-1.44-2.161-2.161-3.25l-1.081-2.345
		c-0.36,1.625-1.089,4.33,0.72,5.595c-0.54,0.72-1.981,0.176-2.881,0.353c-0.908-0.538,0.541-1.258,0.541-1.978
		c-0.18-2.883,0.721-5.947,0-8.663l-1.089-0.9c0.368-0.899,1.989-0.359,2.89-0.359C31.532,124.83,31.893,127.536,33.153,129.874"/>
	<path fill="#6C4598" d="M215.703,123.205c-1.439,1.272,0.369,2.714,0.905,3.788c0.905-0.538,1.449-1.443,1.625-2.338l-0.905-1.265
		c1.627-0.546,4.332-0.186,6.316-0.366c0.722,0.54-0.544,0.717-0.367,1.27c0.184,1.081,0.905,1.801,1.441,2.699
		c0.913-0.538,1.439-1.443,1.633-2.338l-0.913-1.265c1.633-0.726,3.796,0,5.604-0.186c0.712,0.359,0,0.905-0.369,1.272
		c0.369,2.337,1.265,4.5,2.163,6.485c0.727-2.345,3.609-5.228,1.089-7.398l0.543-0.54l9.551,0.181
		c0.905,0.72-0.721,0.905-0.351,1.625l0.174,9.016c0.362,0.543,1.451,0.543,1.082,1.265c-2.521,0-5.228,0.36-7.759,0.175
		c-0.72-0.72,0.554-1.072,0.37-1.792c-0.185-3.076,0.535-6.318-0.546-9.016c-1.985,3.419-2.521,7.574-4.506,10.808
		c-1.635-0.353-1.266-2.337-1.985-3.417c-0.722-2.163-1.441-4.332-2.53-6.318c-1.072,0.369-1.617,1.811-2.161,2.706
		c0.903,2.354,1.985,4.692,4.146,6.31c-0.896,1.265-3.243,0.545-4.683,0.545c-0.553-0.545,0.536-0.722,0.36-1.442
		c0-1.08-1.09-1.8-1.635-2.705c-0.72,0.353-1.441,1.439-1.792,2.161c-0.369,1.265,1.439,0.903,1.256,1.986h-6.316
		c-0.536-0.361,0.369-0.722,0.369-1.083c-0.369-1.256-0.905-2.345-1.625-3.064c-0.905,0.72-1.987,1.625-1.811,2.883
		c0.369,0.543,1.265,0.367,1.265,1.265c-1.265,0.175-3.242,0.175-4.516,0c0-1.083,1.635-1.265,1.995-2.522l2.161-3.25
		c-1.082-1.978-2.161-4.332-3.972-5.947c0.361-0.726,1.994-0.186,2.89-0.546C214.447,123.024,215.343,122.665,215.703,123.205
		 M240.242,124.294c-0.545,2.881-0.369,6.316,0,9.199c0,0.353,0.544,0.353,0.72,0.175l0.36-8.118
		C241.138,125.199,241.138,124.11,240.242,124.294z M220.211,125.006c-1.072,0.913-1.978,2.169-2.521,3.427l2.161,4.155
		c0.729,0.905,1.266-0.36,1.633-0.72C224.719,129.705,221.483,126.993,220.211,125.006z"/>
	<path fill="#6C4598" d="M89.253,138.368c6.317-7.222,16.596-5.966,25.803-6.869l0.352,0.184
		c-3.066,8.663-13.881,3.788-18.582,11.185c1.986,1.265,4.339,3.074,4.876,5.587c0.175,0.544,0.905,0.905,0.72,1.635l-5.051-0.897
		c-3.242,1.25-6.132,3.78-9.928,3.059c-3.778-0.722-7.389-3.252-11.536-1.441c-1.634-1.984-1.081-5.235-0.36-7.572
		c1.801-0.729,3.417,0.896,5.412,0.544c-1.81-2.179-3.435-5.957-6.686-6.501c-5.395-0.176-11.351,0.72-14.61-4.155l0.544-0.353
		c7.951,0.177,16.244-4.516,23.096,0.722C85.283,134.749,87.277,136.727,89.253,138.368 M81.865,135.285
		c-4.339-3.417-11.008-1.792-15.7-0.536c3.066,0.536,6.493-0.536,9.383,0.536c4.875,1.642,6.676,7.405,11.176,9.75
		c-2.513,1.626-6.669,1.443-9.375,0.906c-0.361,0.352-0.361,1.441,0,1.793c3.242-0.352,6.141,1.09,9.022,1.985
		c4.691,1.809,7.573-2.707,11.72-3.059c-1.617-1.626-3.962-1.626-5.94-2.353C88.533,141.602,85.651,137.456,81.865,135.285z
		 M91.96,139.265c-0.897,0.722-0.545,1.617,0.36,2.161c1.81,1.811,3.435-1.08,4.875-1.985c3.435-3.97,8.83-3.057,12.801-5.228
		C103.329,134.213,96.476,134.389,91.96,139.265z"/>
	<path fill="#6C4598" d="M218.409,151.335c-0.72,1.091-2.881,0.915-2.881,2.717c-0.186,2.521-1.265,5.061-0.545,7.572
		c7.036,1.091,14.427,1.441,21.833,2.178c1.984,0.177,2.16-2.178,3.25-3.074l0.536,0.544c-0.536,3.419-0.36,7.031-1.258,10.103
		c-1.273-0.72-0.903-3.432-3.074-3.617c-7.213-0.897-14.61-1.792-21.823-1.792c-0.905,2.338-1.441,5.409-0.72,8.108
		c0.72,1.082,1.976,1.256,2.697,2.161c-1.802,0.72-3.786-0.176-5.413-0.536l-0.536-0.712l2.706-23.651
		C214.447,150.089,217.145,150.441,218.409,151.335"/>
	<path fill="#6C4598" d="M37.845,149.896c-0.36,6.677,4.875,15.7-1.981,20.575c-1.81,1.082-4.512,0.722-6.313-0.184l-1.981-1.617
		c-1.089,1.984-2.169,4.682-4.691,5.764c-1.994,1.081-4.695,0.896-6.677,0.176c-2.53-0.896-4.512-3.235-5.231-5.764l-1.81-14.435
		c1.449-1.801,1.269,1.617,2.89,1.441c7.753,0.544,14.971-1.081,22.192-1.801c2.161-0.72,1.621-3.243,3.062-4.508L37.845,149.896
		 M36.404,158.207c-2.891-0.36-5.952,0.359-8.834,0.72c-1.449,1.258-0.368,3.788-0.188,5.595c0.369,1.443,1.441,2.699,2.89,3.06
		c1.981,0.176,3.783-0.722,5.224-2.161c1.629-1.441,1.629-3.796,1.449-5.773L36.404,158.207z M23.959,159.286
		c-3.975-0.174-7.757,0.36-11.368,1.618c-0.54,2.161-0.54,5.061,0.361,7.038c0.72,2.169,2.882,3.432,5.051,3.432
		c2.161-0.182,4.335-0.903,5.776-2.704c1.441-2.354,1.081-5.421,0.721-8.118L23.959,159.286z"/>
	<path fill="#6C4598" d="M174.938,129.152c0,4.155,4.692,1.265,7.037,2.53c0.722,0.72-0.36,2.345,0.905,2.53l7.748,0.176
		c0.546,1.995,0.896,5.052-0.543,6.493c1.625,1.441,0.543,4.153,0.72,6.131c-1.618,1.266-0.536,4.148-0.896,6.134l0.896,0.905
		c-0.353,1.801,0.72,4.515-0.896,5.595c-0.359,3.068-0.359,6.669,0,9.735c1.441,0.905,0.544,3.436,0.72,5.052l-0.176,0.722
		c-4.322,0.359-9.197,0.174-13.529,0c-0.359-1.804-1.081-4.868,0.546-6.31v-9.199l-0.905-0.72c0.176-2.161-0.185-4.516,0.359-6.316
		c-0.905-1.449-2.521-2.347-4.146-1.978c-1.274,0.176-2.53,1.073-3.066,2.339c0.536,1.8,0.353,4.145,0.177,6.141l-0.546,0.534
		l-0.353,9.023c1.618,1.441,0.722,4.147,0.898,6.125l-0.722,0.36l-13.346-0.169c-0.367-1.635-0.367-3.794,0-5.419l0.722-0.371
		l0.176-9.012c-1.617-1.794-1.081-5.054-0.361-7.038c-0.184-1.258-1.439-2.161-2.528-2.514c-1.441-0.544-3.066,0-4.324,1.073
		c-0.903,0.72-0.536,1.626-0.184,2.529c-0.353,1.793,0.72,4.155-0.896,5.228c0,3.252-0.359,6.502-0.176,9.383
		c1.617,1.441,0.72,4.146,0.72,5.949l-13.537,0.36l-0.538-0.36c0-1.978-0.903-4.684,0.905-6.125v-9.023
		c-1.625-1.256-0.72-4.155-0.905-6.133c1.627-1.439,0.722-4.154,0.905-5.955c-1.441-1.617-0.72-3.963-0.72-6.133
		c1.616-0.544-0.369-1.266-0.186-2.161l0.362-5.052l8.653-0.186c0.544-0.903-0.535-2.881,1.266-2.712h5.411
		c1.08-0.538,0-2.338,1.441-2.516L174.938,129.152 M154.195,131.315c-0.903,0.553,0,1.809-1.08,2.353l-6.309,0.178
		c-0.193,0.367-0.369,0.903,0,1.087l32.472,0.178c0.353-0.361,0.353-0.897,0.176-1.083l-5.236-0.182
		c-1.802,0.543-1.08-1.618-1.802-2.347L154.195,131.315z M137.959,136.55l-0.359,0.729c0.913,1.089,2.891,0.351,4.332,0.544h46.177
		c0.184-0.193,0.184-0.72-0.184-0.896L137.959,136.55z M139.049,139.44h-0.368c-0.168,0.905-0.359,1.625,0,2.345
		c15.874,0.186,32.822,0.538,48.706,0c0-0.534,0.186-1.439-0.184-2.159L139.049,139.44z M138.145,143.41
		c-0.729,0-0.545,0.898-0.186,1.092l49.966,0.352c0.367-0.178,0.367-0.722,0.184-1.073L138.145,143.41z M187.203,146.479
		l-46.354-0.361l-2.337,0.361c0,2.346-0.368,5.05,0,7.388c2.146,0.369,4.674,0.186,7.021,0.186c0.36-2.163,1.626-4.332,3.787-5.414
		c1.625-0.903,3.972-1.079,5.956-0.359c2.345,0.913,3.963,3.428,4.332,5.773c1.985,0.184,4.506,0.184,6.677,0
		c0.526-1.978,1.615-3.963,3.603-5.228c1.615-1.09,3.97-1.441,5.955-0.546c2.522,1.081,3.972,3.428,4.691,5.957h6.133l0.72-0.544
		L187.203,146.479z M146.438,155.677c-2.705-0.353-5.947,0-8.838,0v0.72c2.706,0.553,5.957,0.369,8.663,0.369l0.351-0.369
		L146.438,155.677z M159.608,155.677c-0.722,0-1.811,0-1.266,1.089h9.015c0.192-0.193,0.192-0.737-0.177-0.913L159.608,155.677z
		 M179.278,156.028c-0.193,0.185-0.369,0.737,0,0.921c2.881,0,5.939,0.167,8.646-0.184c0.184-0.193,0.367-0.737,0-0.913
		C185.218,155.677,181.976,155.491,179.278,156.028z M138.513,158.566v11.352c2.146,0,4.86,0.193,7.021-0.169
		c0.185-3.609,0.36-7.756,0-11.358C143.373,158.207,140.49,158.021,138.513,158.566z M166.461,158.566
		c-2.163-0.359-4.867-0.545-7.028,0c-0.193,3.963-0.193,7.749,0,11.352l6.853,0.193l0.359-0.362L166.461,158.566z M180.167,158.741
		l-0.169,10.826l0.722,0.72l6.483-0.369c0-3.603,0.184-7.574-0.177-11.352C184.858,158.391,182.159,158.207,180.167,158.741z
		 M137.959,171.553c-0.543,0-0.543,0.72-0.359,1.079c2.891,0,6.133,0.72,8.838,0c0.176-0.359,0.176-0.72-0.175-1.079H137.959z
		 M158.534,171.553c-0.553,0.174-0.367,0.896-0.367,1.265l7.572,0.175c0.722,0.178,1.985,0,1.618-1.08
		C164.475,171.374,161.417,171.727,158.534,171.553z M179.085,171.912c-0.176,0.184-0.176,0.72,0.193,1.08
		c2.697,0,5.939,0.178,8.646-0.175c0.184-0.369,0.184-0.905-0.186-1.091C184.858,171.553,181.792,171.553,179.085,171.912z"/>
	<path fill="#6C4598" d="M169.711,40.048c14.962,1.626,30.31,13.707,34.447,28.501c1.625,5.412,2.171,11.192,1.995,17.325
		l-0.37,74.854c-1.439,13.706-10.639,26.701-23.271,33.008c-6.308,3.074-13.346,4.699-21.095,4.33l-78.647-0.534
		c-15.875-1.091-31.399-14.074-35.722-29.229c-3.065-9.19-1.264-19.849-1.625-29.768l0.361-62.229
		c1.081-15.146,13.529-29.942,27.964-34.633c3.778-0.905,7.565-1.801,11.72-2.162L169.711,40.048 M81.68,47.446
		c-11.184,1.617-22.736,10.455-26.339,21.462c-3.603,11.008-1.81,24.714-2.161,36.62c0.721,4.146,4.692,8.296,8.654,9.018
		l47.986,0.36l4.332-0.54c3.786-1.265,7.205-5.044,7.574-9.207l0.184-45.264l-0.36-4.876c-1.265-3.971-4.516-6.853-8.486-7.749
		C102.248,47.27,91.96,46.365,81.68,47.446z M140.658,47.085l-3.242,0.536c-3.427,1.265-6.677,4.147-7.398,7.758
		c-0.72,16.587-0.176,34.097-0.353,50.869c0.898,4.146,4.868,7.758,9.016,8.478c17.14,0.36,34.457,0.54,50.869,0.36
		c3.97-1.08,7.756-4.868,8.478-9.014l0.36-21.656c1.089-13.346-5.052-25.066-16.053-32.104
		C170.783,44.195,154.917,48.166,140.658,47.085z M64.188,122.303l-1.986,0.362c-4.155,0.54-8.118,4.51-9.022,8.481
		c0,10.999-0.721,21.825,0.536,32.655c0.729,1.978,3.066,1.978,5.051,1.978c2.706-0.359,5.052-1.978,6.678-4.155
		c1.809,2.354,4.331,4.155,7.212,4.341c3.075,0,5.772-1.811,7.582-4.155c2.161,2.53,4.867,4.506,8.478,4.155
		c2.698-0.186,4.876-2.163,6.493-4.155c1.985,2.53,4.875,4.33,8.302,4.155c2.698-0.186,5.044-2.163,6.853-4.155
		c1.073,1.809,2.883,3.25,4.692,3.786c1.977,0.544,4.683,0.544,6.3-0.722l0.369-33.006l-1.617-4.155
		c-1.441-2.514-4.156-4.148-6.861-4.868L64.188,122.303z M139.761,122.665l-1.439,0.18c-3.788,0.546-7.582,3.796-8.479,7.572
		c-0.72,16.966-0.544,34.643-0.544,51.774c0.72,3.972,4.691,7.029,8.478,8.118l20.392,0.184c5.764,0.538,11.721,0.186,16.956-1.802
		c11.544-3.793,21.463-15.521,22.736-27.604c0.168-9.56,0.704-19.662,0-29.22c-0.554-3.972-4.523-7.758-8.31-8.663L139.761,122.665z
		 M65.261,165.42c-1.81,1.439-3.787,2.337-6.132,2.704c-1.256,0.353-3.066-0.367-3.963,0.179c0.896,2.89,2.337,5.587,4.323,7.932
		c2.346,0.193,4.331-1.978,5.957-3.603c1.809,2.354,4.331,4.322,7.572,4.156c3.067,0.166,5.413-2.179,7.406-3.971
		c1.257,1.439,2.346,2.881,4.139,3.417c2.354,0.913,5.236,0.913,7.398-0.536c1.44-0.543,2.169-2.161,3.426-2.706
		c1.985,2.522,4.699,4.155,7.942,3.962c2.697-0.166,4.875-1.968,6.668-3.962c1.441,1.441,3.251,3.242,5.236,3.796
		c1.986,0.535,4.332,0.359,5.957-0.729c0.167-2.707,0.72-5.588,0-8.116c-3.971,1.08-8.126,0-11.193-2.347
		c-1.793,1.264-3.603,2.347-5.948,2.707c-3.418,0.543-6.316-1.082-8.838-2.883c-1.617,1.439-3.426,2.161-5.412,2.704
		c-3.25,0.546-6.308-0.367-8.654-2.345c-1.449-1.089-2.178,1.08-3.435,1.258C73.747,169.196,68.695,167.942,65.261,165.42z
		 M66.165,176.788c-1.625-1.09-2.882,1.441-4.507,1.801v0.36c3.603,4.331,8.118,7.214,12.986,9.014
		c10.823,4.331,25.25,1.625,37.162,2.347l3.971-1.266c3.603-2.161,6.132-5.939,5.413-10.095c-3.796,1.081-8.311,0.184-11.193-2.521
		l-3.233,1.985c-3.62,1.791-8.311,0.72-11.376-1.985l-3.426,1.985c-3.796,1.441-8.47,0.897-11.369-1.985
		c-2.346,1.266-4.683,2.705-7.574,2.705C70.321,179.311,68.16,178.229,66.165,176.788z"/>
	<path fill="#6C4598" d="M41.28,172.992c2.161,6.492,10.635,13.346,4.322,20.198c-1.62,1.265-3.975,1.811-5.956,1.441
		c-1.622,0-2.882-1.441-4.323-1.441l-6.312,12.099c-0.541,1.439,0,2.881,0.18,4.137c-0.18,0.538-0.9,0.72-1.081,0.36
		c-1.81-1.8-2.53-4.146-2.169-6.675c1.081-4.5,4.511-7.937,6.132-12.08c0.541-1.811-0.36-3.429-1.621-4.508
		c-3.07,1.079-5.952,2.521-8.663,4.689c-1.257,1.443,0.188,3.242-0.175,4.693c-0.909,0.534-1.27-0.546-1.629-1.091
		c-0.901-3.064-3.423-5.771-4.151-8.83c1.089-0.72,1.809,0.897,2.89,1.072c7.577-1.976,14.07-6.308,20.923-10.104
		C42,175.875,38.566,172.817,41.28,172.992 M42,180.75c-3.075,1.441-6.505,2.53-8.847,4.868c0.541,2.161,1.63,4.339,3.611,5.595
		c1.26,0.359,3.242,0.538,4.327-0.182c1.981-0.898,3.25-2.883,3.43-4.868C44.342,184,44.162,181.47,42,180.75z"/>
	<path fill="#6C4598" d="M216.608,181.663c1.449,1.794,1.625,3.955,1.801,6.3l1.266,0.359c5.597-0.894,12.449,1.082,16.596-3.24
		c0.896,0.359,0.546,1.256,0.359,1.976c-3.25,7.397-12.447,3.795-18.572,5.061c-1.449,0.72-2.529,2.163-2.715,3.788
		c3.066,2.159,5.957,5.228,9.929,4.689c1.08-0.543,1.976-2.881,3.064-1.439c-2.178,3.064-3.794,6.483-6.316,9.19
		c-1.439-0.546,0.186-2.163-0.536-3.243c-5.78-5.051-12.271-8.11-18.581-12.088c-0.905-0.359-2.16-0.545-3.066,0.544
		c-0.359,0.353-0.729,0.896-1.448,0.722c-0.72-0.905,0.176-1.625,0.543-2.347C202.533,186.523,208.49,173.714,216.608,181.663
		 M209.572,183.457c-2.348,0.369-4.878,2.706-5.414,5.059c2.347,2.337,5.054,3.603,7.759,5.22c2.161,1.08,2.706-2.163,3.786-3.426
		c0.905-1.618,0.369-3.972-0.896-5.228C213.542,183.633,211.549,183.457,209.572,183.457z"/>
	<path fill="#6C4598" d="M60.209,196.993c0.36,0.538,1.098,0.898,0.905,1.441c-1.072,0.722-2.17-0.543-3.242,0.177
		c-5.06,5.587-9.383,11.905-13.351,18.221c-0.9,1.625,0.901,2.883,1.081,4.322c-0.72,0.553-1.26-0.36-1.8-0.72
		c-2.174-1.978-4.876-3.064-6.677-5.052c0.721-0.903,1.621,0.193,2.522-0.176L42,213.582l10.995-15.517
		c1.45-1.809,0.185-3.97-0.904-5.409c0.184-0.905,1.265-0.362,1.625,0L60.209,196.993"/>
	<path fill="#6C4598" d="M207.225,204.567c1.987,4.139,1.812,10.271-1.071,14.067c-4.34,5.955-11.192,7.933-18.229,6.853
		c-3.972-0.897-7.758-4.515-9.199-8.296c-1.985-4.329-1.802-10.286,1.089-13.889c4.508-5.411,10.991-7.766,17.854-6.677
		C201.462,197.531,205.416,200.774,207.225,204.567 M191.711,198.971c-3.972,0.186-7.758,1.804-9.919,5.413
		c-1.978,3.786-0.896,9.014,1.625,12.265c2.53,3.786,6.669,6.309,11.36,6.502c3.786-0.193,7.756-2.178,9.566-5.78
		c1.626-3.253,1.266-7.584-0.545-10.642C201.094,202.39,196.77,198.971,191.711,198.971z"/>
	<path fill="#6C4598" d="M89.253,214.117c0.185,5.412-1.616,10.473-5.948,13.89c-7.941,6.133-17.324-0.182-25.433-1.256
		c-0.37-0.184-0.37-0.903,0-1.089c1.792,0.186,3.435-1.439,3.786-3.25l4.868-19.479c0.175-1.985-2.522-1.8-2.707-3.425l0.544-0.353
		C73.747,201.494,86.917,202.221,89.253,214.117 M74.468,203.662c-1.089-0.359-2.531-0.903-3.611,0
		c-1.977,6.854-4.155,13.529-5.596,20.561l0.368,1.265c3.787,2.338,8.839,4.516,13.337,2.159c2.346-0.896,3.979-3.424,4.876-5.587
		c1.264-3.97,1.809-9.743-1.073-13.17C80.776,206.009,77.525,204.567,74.468,203.662z"/>
	<path fill="#6C4598" d="M172.049,206.009c1.809,1.618,2.354,3.955,1.984,6.308c-0.543,2.163-1.809,4.155-3.786,5.421
		c-2.522,1.258-6.133,2.337-8.478,0.72c0.72-1.266,2.705-0.367,3.97-1.087c1.811-0.372,3.603-1.626,4.148-3.437
		c0.359-1.617,0.176-3.788-1.082-5.228c-1.801-2.345-5.051-3.242-7.934-2.697l-0.728,1.072c0.359,7.036,1.272,13.892,2.169,20.744
		c0.359,1.263,1.265,2.528,2.522,2.704c0.728,0.368,1.809-0.176,2.345,0.546c-0.536,1.439-2.53,0.72-3.603,1.087
		c-2.53-0.184-5.235,1.618-7.582,0.353c0.546-1.072,2.707-1.617,2.347-3.233c-0.722-7.222-0.722-14.62-2.347-21.48
		c-0.543-1.978-4.146-0.536-3.426-2.697c5.228-0.186,10.288-2.17,15.699-1.089L172.049,206.009"/>
	<path fill="#6C4598" d="M118.299,206.905c0.536,0,1.081-0.36,1.81-0.177l0.72,6.485c-2.161,0.544-1.994-2.697-3.795-3.603
		c-3.417-3.066-7.758-4.508-12.449-3.428c-2.513,1.081-5.412,2.706-6.493,5.413c-1.617,3.786-1.801,9.023,0.176,12.808
		c1.625,3.603,5.42,6.854,9.567,6.854c3.25-0.184,6.676-0.536,8.478-3.434c0.361-2.338,0.905-5.046,0.185-7.391
		c-0.721-1.258-2.53-0.72-3.25-1.978l0.369-0.544l8.83,0.177c0.368,0.184,0.368,0.545,0.184,0.905
		c-3.61,1.799-1.44,6.853-2.346,10.286c-5.596,3.233-13.346,5.578-20.022,2.514c-4.331-1.792-6.861-6.308-7.582-10.641
		c-0.36-6.122,1.81-11.895,7.213-15.146C105.322,202.934,113.248,203.846,118.299,206.905"/>
	<path fill="#6C4598" d="M147.159,206.184c-0.353,1.265,0.176,3.076-0.896,3.962c-1.635-0.534-0.915-2.881-2.706-3.064
		c-2.898-0.176-6.141-0.353-8.848,0.184c-1.265,2.699-0.536,6.317-0.353,9.207c2.338,1.266,5.404,0.526,7.935,0.177
		c1.441-0.177,1.266-2.715,2.707-1.987c0,2.171,0,5.054,0.176,7.584c-1.617,0.905-1.266-1.625-2.337-2.171
		c-2.347-0.897-5.421-0.359-7.944-0.359l-0.72,0.905c0.184,2.881-0.729,6.853,0.72,9.383c5.062,0.72,10.281,0.351,13.892-3.252
		c0.72,0,0.72,0.722,0.72,1.256c-0.536,1.811-1.978,3.788-3.786,4.508l-17.861,0.367c-0.176-0.182-0.353-0.182-0.353-0.541
		c0.536-0.898,1.794-0.898,2.338-1.987c0.897-6.483,0.722-14.427,0.176-21.464c-0.176-1.809-2.337-2.345-3.426-3.25
		c0-1.072,1.089-0.722,1.634-0.896c6.308,0.72,12.433-0.36,18.581-0.177L147.159,206.184"/>
</g>
</svg>
